# xmcd CD database file
#
# Track frame offsets:
#	150
#	16362
#	32177
#	60075
#	72900
#	90412
#	105050
#	122500
#	145812
#	164125
#
# Disc length: 2681 seconds
#
# Revision: 0
# Processed by: cddbd v1.5.1PL0 Copyright (c) Steve Scherf et al.
# Submitted via: CDex 1.51
#
DISCID=760a770a
DTITLE=Nuthin' But... - ...loaded!
DYEAR=1993
DGENRE=Blues
TTITLE0=First blues
TTITLE1=Proud 'n' loud
TTITLE2=Groove real slow
TTITLE3=Too drunk for love
TTITLE4=King bee
TTITLE5=Badfinger blues
TTITLE6=Hear me call your name
TTITLE7=Thanx (for leavin' me alone)
TTITLE8=Three B's
TTITLE9=Time to leave
EXTD=YEAR: 1993
EXTT0=
EXTT1=
EXTT2=
EXTT3=
EXTT4=
EXTT5=
EXTT6=
EXTT7=
EXTT8=
EXTT9=
PLAYORDER=
